<?xml version="1.0" encoding="utf-8"?>
<!-- Generator: Adobe Illustrator 19.2.1, SVG Export Plug-In . SVG Version: 6.00 Build 0)  -->
<svg version="1.1" id="Слой_1" xmlns="http://www.w3.org/2000/svg" xmlns:xlink="http://www.w3.org/1999/xlink" x="0px" y="0px"
	 viewBox="0 0 205 50" style="enable-background:new 0 0 205 50;" xml:space="preserve">
<style type="text/css">
	.st0{fill:#E31E24;}
	.st1{fill:#5B5B5B;}
</style>
<g id="Слой_x0020_1">
	<path class="st0" d="M191.1,4c-0.1,1.8-1.1,3.5-1.9,4.5c-3.1,3.6-10.6,5.3-13.8,2.7c-1.4-1.1-1.3-3.1-0.1-4.4
		c2.1-2.3,6.6-2.8,9.7-3c0.6,0,5.2,0,6,0.2C191.2,4,191,3.9,191.1,4z M204.5,24c-2.3-0.4-4.5-1.4-5.9-2.6c-1.4-1.2-2.7-2.6-3.4-5.1
		c-0.9-3.2,0-7.9,0.7-11.2c0.2-1.1,0.6-2.2,0.8-3.3c-1.1-0.2-2.7-0.3-3.8-0.4c-4-0.3-8.1-0.4-12.1,0c-5.5,0.5-9.3,1.9-12,4.9
		c-1.3,1.5-2.3,4-0.7,6.1c1.1,1.4,3.3,2.4,5.6,2.9c3.6,0.8,7.4,0.2,10.8-1.1c1-0.4,1.9-0.9,2.9-1.3c-0.3,1.1-2.4,3.9-3.2,4.8
		c-1,1.1-2,2.2-3.2,3.2c-0.9,0.7-1.8,1.4-2.9,1.9c-6.8,3.4-10.6-2.7-13.3-3.9c-3-1.3-5.6,6-8.1,2c-1.5-2.4-2.6-7.7-6.2-5.1
		c-0.6,0.4-1.2,0.9-1.8,1.4c-0.8,0.7-1.8,1.5-2.6,2.2c-1.5,1.4-5,4.2-6.8,4.4c-1,0.1-1.6-0.6-1.7-1.5c-0.1-0.9,0.2-1.9,0.6-2.6
		c0.9-1.9,3.1-4.9,4.6-6.6c0.2-0.2,0.7-0.7,0.7-0.8c-0.2-0.2-1-0.7-1.4-0.8c-2-0.9-3.3-0.6-4.9,0.6c-2.7,2-6.5,6-6.9,9.5
		c0,0.4,0.1,0.7-0.2,0.9c-3.4,2.9-9.6,2.3-10.7-3.4c-0.2-1.3-0.2-2.5-0.5-3.8c-1.1-4.8-4.5-4.3-7.8-2.1c-1,0.6-3.4,2.5-4.2,3.4
		c-0.2,0.2-0.3,0.4-0.6,0.5c0.4-0.8,3.7-5.7,4.2-6.5c0.4-0.6,1.3-1.7,0.2-2.2c-0.9-0.5-2.2-0.1-2.9,0.3c-0.7,0.5-1.1,1.3-1.6,2
		c-0.9,1.4-1.8,2.9-2.7,4.4c-0.8,1.5-1.7,3.1-2.5,4.7c-0.3,0.6-0.4,0.5-0.9,0.8c-1.2,0.7-2.4,1.2-3.7,1.6c-1.6,0.5-4.2,1.2-6,0.9
		c-2.7-0.5-1.4-3-0.5-4.3c0.4-0.5,1.5-1.7,1-2.3c-1.6-1.9-6.7,3.7-11.8,5.2c-1.6,0.5-4.8,1.2-5.2-0.8c-0.4-2,1.6-3.8,2.5-4.5
		c1.2-1,2.8-1.8,4.6-2.5c7-2.8,10.4,0.3,11.6,0.3c0.4-0.6,0.5-1.7,0.1-2.4c-0.3-0.5-0.9-1-1.7-1.3c-4.1-1.6-10.8,0.4-14.5,2
		c-2.9,1.3-4.9,2.6-7.2,4.6c-1.9,1.7-4.4,4.6-4.2,7.5c-4.1,1.9-8.2,0.9-10.3-1.9c-2.8-3.7-1.2-7.2-2.9-11.1
		c-0.7-1.6-1.9-2.9-4.2-2.9c-3.5,0-7.6,3.6-10.2,5.7l-2.3,2.1c-0.2,0.2-0.2,0.3-0.5,0.4c-0.2-1.3-0.7-2.7-1-4l-2.1-7.9
		c-0.4-1.4-0.9-2.5-1.8-3.2c-2.2-1.9-4.9,0.5-6.7,1.9c-1.2,1-3.8,3.8-4.8,5.1l-2.3,2.7c-2.2,2.6-4.4,5.7-6.5,8.4
		c-0.7,0.9-1.4,1.9-2.1,2.9c-1.6,2.1-4.4,5.6-6.4,7.3c-0.2,0.2-0.5,0.4-0.6,0.6c2,0.3,5.5-0.1,7.3-0.7c2.5-0.8,3.5-1.7,4.8-3.3
		c1.2-1.5,2.2-3.2,3.3-4.8c2.1-3.2,4.1-6.7,6.4-9.8c0.6-0.8,1.2-1.5,1.9-2.2c0.4-0.4,1.8-1.8,2.5-0.8c0.8,1.1,1.1,5.2,1.2,6.9
		c0.2,2.4,0.3,4.9,0.7,7.3c0.3,2,1.1,5.5,3.4,3.4c0.4-0.3,0.7-0.7,1-1c0.3-0.4,0.7-0.7,1-1c0.3-0.4,0.7-0.7,1-1
		c1.6-1.8,3.3-3.4,5.2-4.9c1.4-1,4.1-2.6,5.6-0.7c2.5,3,2.5,6.9,7.1,9.1c3.5,1.7,7.9,1.4,11.6-0.2c0.3-0.2,1-0.6,1.3-0.7
		c0.3,0.4,0.4,0.5,0.9,0.8c2.7,1.6,7.5,0.4,10.2-0.5c1.9-0.6,3.2-1.4,4.6-2.3c0.9-0.6,3.2-2.1,4.1-2.8c0,0.3-0.2,1-0.2,1.3
		c-0.1,1.3-0.1,3,0.9,3.8c1.9,1.5,7.7-1.4,9.5-2.4l4.1-2.2c-0.3,0.8-0.8,1.7-1.1,2.5c-2.4,5.6-4.5,13.7-5.4,19.6
		c-0.1,0.9-0.7,3.9-0.2,4.8c0.2,0.3,0.6,0.7,1.1,0.6c1.5-0.1,2-3.2,2.4-4.7c1.7-6.3,4.1-15.6,7.9-20.6c1.4-1.8,4.7-6.4,8.3-5.9
		c0.9,0.1,1.5,1,1.8,1.7c1.4,2.4,2.1,4.6,4.9,5.8c3.1,1.4,7.1,0.7,9.9-1.2c0.3-0.2,0.8-0.6,1.1-0.7c0.5,0.5,0.5,1.2,1.8,2
		c0.7,0.5,1.7,0.8,2.7,1c5.6,1,9.9-2,13.7-5.4c0.5-0.4,0.9-1,1.4-1.4c0.1,0.1,0.7,1.6,1.3,2.4c2.9,4.1,6.6,2.4,10.2,0.6
		c2.4-1.2,3.1-0.5,5.2,0.8c0.8,0.4,1.6,0.8,2.5,1.2c4.1,1.6,8.4,0.8,12-0.9c1.6-0.8,3.3-1.8,4.6-2.8c0.8-0.7,2.2-1.7,2.9-2.6l0.8-1
		c0.1,0.2,0.7,2.2,0.9,2.6c0.9,2.3,2.4,4.8,4.3,6.1c1.8,1.3,3.1,1.2,5.3,0.2c1.2-0.5,2.3-1.1,3.4-1.8c0.2-0.1,0.3-0.2,0.5-0.4
		c0.1-0.1,0.2-0.1,0.3-0.2L204.5,24z M58.8,14.4c-0.1-1.6,1.1-3,2.6-3.1c1.7-0.1,3,1.2,3.1,2.7c0.1,1.6-1.1,2.9-2.6,3.1
		C60.3,17.2,59,15.9,58.8,14.4z M61.2,10.7c-1.8,0.3-3.2,1.9-2.9,4c0.3,1.7,1.9,3.2,4,2.8c1.7-0.3,3.2-1.9,2.9-4
		C64.8,11.9,63.2,10.4,61.2,10.7z M60.9,12.8c0.6,0,1.6-0.2,1.6,0.6c0,0.7-1,0.5-1.6,0.5L60.9,12.8z M60,16.1h0.9v-1.6l0.9,0
		l0.6,1.6h0.9l-0.7-1.8c1.1-0.4,0.8-1.6,0.3-1.9c-0.6-0.4-2.1-0.3-2.9-0.3L60,16.1z"/>
	<path class="st1" d="M157.4,36.9c-0.2,0-1.6,0-1.7,0c-0.2,0.1-0.3,1-0.4,1.3l-1.2,5.5c-0.1,0.5-0.6,2.3-0.6,2.7l9,0
		c0.2-0.4,2.1-9.3,2-9.5l-1.8,0l-1.7,7.9h-1.8c-0.1-0.6,1.6-7.2,1.6-7.9h-1.7c-0.1,0.3-0.8,3.4-0.9,4c-0.1,0.7-0.3,1.3-0.4,2
		c-0.1,0.3-0.1,0.7-0.2,1c0,0.2-0.1,0.9-0.3,0.9h-1.8L157.4,36.9z M183.9,45c0-0.6,0.5-2.2,0.6-2.9c0.1-0.6,0.1-1.1,0.4-1.3
		c0.4-0.3,0.9-0.4,1.1,0.1c0.3,0.8-0.2,3.3-1,4C184.6,45.4,184.2,45.2,183.9,45z M182.2,40.6c0.5-0.2,1,0.1,0.9,0.7l-0.6,2.8
		c-0.1,0.6-0.1,0.9-0.6,1c-1.3,0.3-0.9-1.5-0.8-2.3C181.2,42,181.5,40.9,182.2,40.6z M185.6,37.3c-1.7,0-1.6-0.1-1.7,0.3l-0.2,0.9
		c-0.1,0.4-0.2,0.8-0.3,1.3c-0.4-0.2-0.6-0.6-1.4-0.5c-0.5,0.1-1,0.4-1.3,0.6c-1.3,1.1-2.8,6-0.2,6.5c0.8,0.1,1-0.1,1.5-0.4
		l-0.6,2.5c2,0,1.6,0.3,1.9-1.3c0.1-0.3,0.2-1,0.3-1.2c0.5,0.3,0.6,0.5,1.5,0.3c2.6-0.5,3.2-5.2,2.5-6.5c-0.2-0.4-0.6-0.7-1.2-0.7
		c-0.6,0-1,0.3-1.4,0.5L185.6,37.3z M108.7,36.9h-1.8l-2,9.6h1.8c0.2-0.7,0.5-2.4,0.7-3.3c0.1-0.7,0.1-1,0.4-1
		c0.8,0,1.4-0.1,1.4,0.8c0.1,1.2-0.2,2.6,0.5,3.2c0.3,0.3,0.9,0.4,1.5,0.3c0.1-0.1,0.7-1.2,0.6-1.4c-0.2-0.2-0.3-0.1-0.5-0.2
		c-0.5-0.2-0.3-1-0.3-1.7c0-1.4-0.3-1.4-0.8-1.8l-0.1-0.1c0.9-0.2,1.2-0.8,1.5-1.7c0.1-0.3,0.3-0.9,0.5-1.1c0.3-0.5,0.6-0.3,1-0.6
		c0.1-0.3,0-1.1-0.1-1.3c-0.6-0.1-1.3,0.2-1.7,0.5c-0.4,0.3-0.6,0.8-0.9,1.4c-0.8,1.9-0.6,2.1-2.4,2.1L108.7,36.9z M176.5,41
		c0,0.5-0.5,2.5-0.7,3c-0.6,1.3-1.8,1.6-2,0.7c-0.2-0.8,0.2-2.4,0.5-3.1C174.8,40.5,175.5,40.1,176.5,41z M177.6,46.4
		c0-0.7-0.2-1-0.2-1.9c0.1-0.6,0.2-1.2,0.3-1.8c0.1-0.7,0.7-3,0.7-3.4l-1.5,0l-0.1,0.7c-0.5-0.3-0.7-0.7-1.5-0.7
		c-1.7,0-2.7,1.9-3.1,3.5c-0.3,1.2-0.3,2.9,0.6,3.5c0.5,0.4,1.2,0.2,1.8,0c0.3-0.1,0.5-0.2,0.7-0.4l0.6-0.5
		C175.9,46.8,175.8,46.4,177.6,46.4z M128.7,39.3l-1.6,0l-1.6,7.1l1.6,0c0.2-0.7,0.4-1.5,0.5-2.3c0.1-0.7,0-0.7,0.6-0.7
		c0.5,0,0.9,0,1.4,0l-0.6,3l1.6,0l1.6-7.1c-1.7,0-1.6-0.1-1.7,0.3l-0.2,1c-0.1,0.5-0.2,1-0.3,1.4l-1.9,0L128.7,39.3z M138.4,46.4
		c0-0.7-0.3-1.1-0.1-1.9c0.2-1.4,0.9-3.6,1.2-5.2l-1.6,0c-0.2,1.1-0.5,2.1-0.7,3.2c-0.2,1-0.6,2.2-1.4,2.5c-1.5,0.6-0.7-1.8-0.5-2.5
		c0.2-1,0.6-2.2,0.7-3.2l-1.6,0c-0.2,0.9-1.2,4.8-1.2,5.4c-0.1,1.1,0.5,1.9,1.6,1.7c1.2-0.2,1.7-1.1,2-1.3
		C136.7,46.7,136.5,46.4,138.4,46.4z M148,46.4c-0.1-0.7-0.3-1.2-0.2-1.9c0.2-1,1.1-4.6,1.2-5.2l-1.6,0c-0.3,1.3-0.8,4.1-1.4,5.1
		c-0.2,0.3-0.8,0.9-1.4,0.7c-0.5-0.4,0.1-2.3,0.3-2.9c0.2-0.7,0.6-2.3,0.6-2.9h-1.6c-0.2,0.5-1.2,4.9-1.3,5.4
		c-0.2,2.1,1.8,2.3,3.2,0.9c0.2-0.2,0.2-0.3,0.4-0.4c0,0.5,0,0.8,0.2,1.2L148,46.4z M168,39.3l-1.6,0l-1.6,7.1h1.6l0.7-3
		c0.6,0,1-0.1,1.2,0.4c0.2,0.8-0.1,2,0.7,2.4c0.3,0.2,0.9,0.3,1.3,0.2c0.2-0.2,0.5-1,0.5-1.3c-0.9-0.2-0.7-0.1-0.8-1.2
		c-0.1-0.7-0.2-1-0.8-1.2c0.3-0.2,0.6,0,1.2-1.2c0.6-1.2,0.7-0.8,1.3-1c0-0.3,0-1-0.1-1.3c-1.2-0.1-1.9,0.5-2.2,1.3
		c-0.6,1.3-0.5,1.6-1.9,1.5L168,39.3z M111.3,48.6c0.5,0.6,2.1,0.9,3.3-0.1c1.1-0.9,2.4-4.5,3-6c0.2-0.5,0.4-1.1,0.7-1.6
		c0.1-0.3,0.6-1.3,0.6-1.5h-1.6c-0.3,0.7-0.7,2-0.9,2.8c-0.2,0.5-0.8,2.4-1,2.7c-0.2-0.9-0.3-1.8-0.4-2.7c-0.1-0.7-0.1-2.2-0.3-2.8
		h-1.4l1.2,6.7c0.2,0.8-0.3,1.7-1.1,1.8c-0.6,0.1-0.8-0.2-1.3-0.3C111.8,47.7,111.4,48.4,111.3,48.6z M123,42.8
		c0.2-0.4,2.6-3,2.9-3.5h-2c-0.2,0.4-0.5,0.8-0.8,1.2c-0.2,0.3-0.6,0.9-0.8,1.2l-0.8-2.3h-1.7c0,0.5,1.3,2.8,1.5,3.5
		c-0.2,0.3-1.2,1.4-1.5,1.8c-0.3,0.3-0.5,0.6-0.8,0.9c-0.1,0.2-0.7,0.7-0.7,0.9l1.9,0c0.4-0.4,1.6-2.3,1.8-2.5l1,2.5h1.7
		c-0.1-0.3-0.7-1.4-0.8-1.8C123.6,44.1,123.1,43.3,123,42.8z M190.5,45.2c0.1-0.5,0.2-1.3,0.4-1.8c0.1-0.2,0.1-0.2,0.2-0.3
		c1.6-0.4,1.8,1.2,1,1.9C191.7,45.4,191.1,45.3,190.5,45.2z M191.8,39.3h-1.6c-0.3,1.5-0.7,3-1,4.5c-0.1,0.4-0.2,0.7-0.2,1.1
		c-0.1,0.4-0.3,0.8,0.1,1c0.6,0.3,1.4,0.6,2.1,0.6c3.5,0.1,3.9-3.5,2.4-4.4c-0.7-0.5-1.4-0.3-2.3-0.2L191.8,39.3z M198,39.3l-1.6,0
		c-0.2,1.2-0.5,2.4-0.8,3.5c-0.1,0.7-0.8,3-0.8,3.6h1.6L198,39.3z"/>
</g>
</svg>
